{"title":"Rekindling.The.Flame.XXX.2014.DVDRiP-ViK","uid":10869756,"size":1442254643,"categoryP":"porn","categoryS":"movies","magnet":"?xt=urn:btih:415265acc29f0470ede314cf6d7be1188a84bfe9&amp;dn=Rekindling.The.Flame.XXX.2014.DVDRiP-ViK&amp;tr=udp%3A%2F%2Ftracker.openbittorrent.com%3A80&amp;tr=udp%3A%2F%2Fopen.demonii.com%3A1337&amp;tr=udp%3A%2F%2Ftracker.coppersurfer.tk%3A6969&amp;tr=udp%3A%2F%2Fexodus.desync.com%3A6969","seeders":0,"leechers":1,"uploader":"iH2OSO4","files":-1,"time":1408963826,"description":"Cherie and Ryan, whose careers cause them to spend less time together than apart, seek exciting ways to keep their sexual attraction hot between visits. Rekindling The Flame In appreciation for her husband's thoughtful, romantic gestures, Callie decides to explore some more taboo adventures in the bedroom. Rekindling The Flame movie Roleplaying becomes the perfect recipe for seduction after Siri and Richie meet up at a bar for a pretend, 'first time encounter. Rekindling The Flame adult DVD ' August, a seemingly sweet and innocent young bride, surprises her husband, Danny with a steamy afternoon filled with handcuffs, blindfolds, and a leather whip...\n\nSOURCE :    &lt;a href=&quot; http://nuscotower.com/i/3dgfhk.html&quot; rel=&quot;nofollow&quot; target=&quot;_NEW&quot;&gt; http://nuscotower.com/i/3dgfhk.html&lt;/a&gt;\n\nGeneral\nRekindling.The.Flame.XXX.2014.DVDRiP-ViK.mp4\nFormat                           : MPEG-4\nFormat profile                   : Base Media\nCodec ID                         : isom\nFile size                        : 1.34 GiB\nDuration                         : 1h 55mn\nOverall bit rate                 : 1 661 Kbps\nEncoded date                     : UTC 2014-08-25 08:02:06\nTagged date                      : UTC 2014-08-25 08:02:06\n\nVideo\nID                               : 1\nFormat                           : MPEG-4 Visual\nFormat profile                   : Simple@L1\nFormat settings, BVOP            : No\nFormat settings, QPel            : No\nFormat settings, GMC             : No warppoints\nFormat settings, Matrix          : Default (H.263)\nCodec ID                         : 20\nDuration                         : 1h 55mn\nBit rate mode                    : Variable\nBit rate                         : 1 533 Kbps\nMaximum bit rate                 : 3 409 Kbps\nWidth                            : 856 pixels\nHeight                           : 480 pixels\nDisplay aspect ratio             : 16:9\nFrame rate mode                  : Constant\nFrame rate                       : 23.976 fps\nColor space                      : YUV\nChroma subsampling               : 4:2:0\nBit depth                        : 8 bits\nScan type                        : Progressive\nCompression mode                 : Lossy\nBits/(Pixel*Frame)               : 0.156\nStream size                      : 1.24 GiB (92%)\nWriting library                  : Lavc53.8.0\nEncoded date                     : UTC 2014-08-25 08:02:06\nTagged date                      : UTC 2014-08-25 08:04:25\n\nAudio\nID                               : 2\nFormat                           : AAC\nFormat/Info                      : Advanced Audio Codec\nFormat profile                   : LC\nCodec ID                         : 40\nDuration                         : 1h 55mn\nBit rate mode                    : Variable\nBit rate                         : 126 Kbps\nMaximum bit rate                 : 239 Kbps\nChannel(s)                       : 2 channels\nChannel positions                : Front: L R\nSampling rate                    : 44.1 KHz\nCompression mode                 : Lossy\nStream size                      : 104 MiB (8%)\nEncoded date                     : UTC 2014-08-25 08:03:51\nTagged date                      : UTC 2014-08-25 08:04:25\n","torrent":{"xt":"urn:btih:415265acc29f0470ede314cf6d7be1188a84bfe9","amp;dn":"Rekindling.The.Flame.XXX.2014.DVDRiP-ViK","amp;tr":["udp%3A%2F%2Ftracker.openbittorrent.com%3A80","udp%3A%2F%2Fopen.demonii.com%3A1337","udp%3A%2F%2Ftracker.coppersurfer.tk%3A6969","udp%3A%2F%2Fexodus.desync.com%3A6969"],"infoHash":"415265acc29f0470ede314cf6d7be1188a84bfe9","infoHashBuffer":{"type":"Buffer","data":[65,82,101,172,194,159,4,112,237,227,20,207,109,123,225,24,138,132,191,233]},"announce":[],"urlList":[]}}